<?xml version="1.0" ?><svg data-name="Слой 1" id="Слой_1" viewBox="0 0 128 128" xmlns="http://www.w3.org/2000/svg"><title/><path d="M126,94H115.67a5.94,5.94,0,0,0,.33-1.94V27.94A6,6,0,0,0,110.06,22H17.94A6,6,0,0,0,12,27.94V92.06A5.94,5.94,0,0,0,12.33,94H2a2,2,0,0,0-2,2v.5C0,101,3.64,106,8.5,106h111c4.86,0,8.5-5,8.5-9.5V96A2,2,0,0,0,126,94ZM16,92.06V27.94A1.94,1.94,0,0,1,17.94,26h92.12A1.94,1.94,0,0,1,112,27.94V92.06A1.94,1.94,0,0,1,110.06,94H17.94A1.94,1.94,0,0,1,16,92.06ZM119.5,102H8.5c-1.95,0-3.67-2-4.27-4H123.77C123.17,100.05,121.45,102,119.5,102Z"/><path d="M81.6,39.11l-36,7.28a2,2,0,0,0-1.6,2V73.56a2,2,0,0,0,1.6,2l36,7.37a1.81,1.81,0,0,0,.4,0,2,2,0,0,0,2-2V41.07a2,2,0,0,0-2.4-2ZM80,59H64V46.75l16-3.23ZM60,47.56V59H48V50ZM48,63H60V74.39L48,71.93ZM64,75.2V63H80V78.48Z"/></svg>